
<svg width="450" height="450" viewBox="0 0 450 450" fill="none" xmlns="http://www.w3.org/2000/svg">
<path d="M303.559 37.5H146.62C78.3705 37.5 37.6832 78.1875 37.6832 146.438V303.375C37.6832 371.625 78.3705 412.313 146.62 412.313H303.559C371.809 412.313 412.496 371.625 412.496 303.375V146.438C412.496 78.1875 371.809 37.5 303.559 37.5Z" fill="#4A3AFF"/>
<path d="M215.608 151.688V323.437C215.608 330.187 208.858 334.687 202.671 332.062C179.984 322.312 150.359 313.312 129.734 310.687L126.171 310.312C114.734 308.812 105.359 298.125 105.359 286.5V142.125C105.359 127.875 116.984 117.188 131.234 118.313C154.672 120.188 189.36 131.438 211.11 143.813C213.923 145.125 215.608 148.313 215.608 151.688Z" fill="white"/>
<path d="M344.625 144.372V286.309C344.625 297.934 335.25 308.621 323.813 310.121L319.875 310.496C299.437 313.309 270 322.121 247.312 331.684C241.125 334.309 234.375 329.809 234.375 323.059V151.496C234.375 148.121 236.063 144.934 239.062 143.247C260.812 131.059 294.75 120.184 317.813 118.121H318.562C333 118.309 344.625 129.934 344.625 144.372Z" fill="white"/>
</svg>
